<?xml version="1.0" encoding="UTF-8" standalone="no"?>
<!DOCTYPE svg PUBLIC "-//W3C//DTD SVG 1.1//EN" "http://www.w3.org/Graphics/SVG/1.1/DTD/svg11.dtd">
<svg width="100%" height="100%" viewBox="0 0 24 24" version="1.1" xmlns="http://www.w3.org/2000/svg" xmlns:xlink="http://www.w3.org/1999/xlink" xml:space="preserve" xmlns:serif="http://www.serif.com/" style="fill-rule:evenodd;clip-rule:evenodd;stroke-linecap:round;stroke-linejoin:round;">
    <path d="M12.034,12.681C12.011,12.622 11.999,12.56 11.999,12.497C11.999,12.223 12.223,11.999 12.497,11.999C12.56,11.999 12.622,12.011 12.681,12.034L21.681,15.534C21.872,15.609 21.999,15.794 21.999,16C21.999,16.218 21.856,16.412 21.648,16.477L18.204,17.545C17.889,17.642 17.641,17.89 17.544,18.205L16.477,21.648C16.412,21.856 16.218,21.999 16,21.999C15.794,21.999 15.609,21.872 15.534,21.681L12.034,12.681Z" style="fill:none;fill-rule:nonzero;stroke:rgb(70,70,70);stroke-width:2px;"/>
    <path d="M5,3C3.903,3 3,3.903 3,5" style="fill:none;fill-rule:nonzero;stroke:rgb(70,70,70);stroke-width:2px;"/>
    <path d="M19,3C20.097,3 21,3.903 21,5" style="fill:none;fill-rule:nonzero;stroke:rgb(70,70,70);stroke-width:2px;"/>
    <path d="M5,21C3.903,21 3,20.097 3,19" style="fill:none;fill-rule:nonzero;stroke:rgb(70,70,70);stroke-width:2px;"/>
    <path d="M9,3L10,3" style="fill:none;fill-rule:nonzero;stroke:rgb(70,70,70);stroke-width:2px;"/>
    <path d="M9,21L11,21" style="fill:none;fill-rule:nonzero;stroke:rgb(70,70,70);stroke-width:2px;"/>
    <path d="M14,3L15,3" style="fill:none;fill-rule:nonzero;stroke:rgb(70,70,70);stroke-width:2px;"/>
    <path d="M3,9L3,10" style="fill:none;fill-rule:nonzero;stroke:rgb(70,70,70);stroke-width:2px;"/>
    <path d="M21,9L21,11" style="fill:none;fill-rule:nonzero;stroke:rgb(70,70,70);stroke-width:2px;"/>
    <path d="M3,14L3,15" style="fill:none;fill-rule:nonzero;stroke:rgb(70,70,70);stroke-width:2px;"/>
</svg>
